<?xml version="1.0" encoding="UTF-8" standalone="no"?>
<!-- Created with Inkscape (http://www.inkscape.org/) -->

<svg
   width="240mm"
   height="120mm"
   viewBox="0 0 240 120"
   version="1.1"
   id="svg8"
   inkscape:version="1.2.2 (b0a8486541, 2022-12-01)"
   sodipodi:docname="descrizione_euleriana.svg"
   xml:space="preserve"
   inkscape:export-filename="descrizione_euleriana.pdf"
   inkscape:export-xdpi="96"
   inkscape:export-ydpi="96"
   xmlns:inkscape="http://www.inkscape.org/namespaces/inkscape"
   xmlns:sodipodi="http://sodipodi.sourceforge.net/DTD/sodipodi-0.dtd"
   xmlns="http://www.w3.org/2000/svg"
   xmlns:svg="http://www.w3.org/2000/svg"
   xmlns:rdf="http://www.w3.org/1999/02/22-rdf-syntax-ns#"
   xmlns:cc="http://creativecommons.org/ns#"
   xmlns:dc="http://purl.org/dc/elements/1.1/"><defs
     id="defs2"><marker
       style="overflow:visible"
       id="Arrow3"
       refX="0"
       refY="0"
       orient="auto-start-reverse"
       inkscape:stockid="Arrow3"
       markerWidth="4.2071066"
       markerHeight="6.9999995"
       viewBox="0 0 4.2071068 7"
       inkscape:isstock="true"
       inkscape:collect="always"
       preserveAspectRatio="xMidYMid"><path
         style="fill:none;stroke:context-stroke;stroke-width:1;stroke-linecap:round"
         d="M 3,-3 0,0 3,3"
         id="arrow3"
         transform="rotate(180,0.125,0)"
         sodipodi:nodetypes="ccc" /></marker><inkscape:perspective
       sodipodi:type="inkscape:persp3d"
       inkscape:vp_x="-21.621533 : 8.1107922 : 0"
       inkscape:vp_y="0 : 405.53961 : 0"
       inkscape:vp_z="21.621533 : 8.1107922 : 0"
       inkscape:persp3d-origin="114.5565 : -8.056482 : 1"
       id="perspective3719" /><inkscape:perspective
       sodipodi:type="inkscape:persp3d"
       inkscape:vp_x="-120 : 20 : 0"
       inkscape:vp_y="0 : 1000 : 0"
       inkscape:vp_z="120 : 20 : 0"
       inkscape:persp3d-origin="172.28779 : -15.438015 : 1"
       id="perspective1105" /></defs><sodipodi:namedview
     id="base"
     pagecolor="#ffffff"
     bordercolor="#666666"
     borderopacity="1.0"
     inkscape:pageopacity="0.0"
     inkscape:pageshadow="2"
     inkscape:zoom="1.4747426"
     inkscape:cx="392.27184"
     inkscape:cy="262.75772"
     inkscape:document-units="mm"
     inkscape:current-layer="layer1"
     showgrid="false"
     showborder="true"
     width="200mm"
     showguides="true"
     inkscape:guide-bbox="true"
     inkscape:window-width="1906"
     inkscape:window-height="1120"
     inkscape:window-x="5"
     inkscape:window-y="47"
     inkscape:window-maximized="1"
     inkscape:showpageshadow="0"
     inkscape:pagecheckerboard="1"
     inkscape:deskcolor="#d1d1d1"><inkscape:grid
       type="xygrid"
       id="grid815"
       units="mm"
       spacingx="10"
       spacingy="10"
       empspacing="4"
       dotted="false" /></sodipodi:namedview><metadata
     id="metadata5"><rdf:RDF><cc:Work
         rdf:about=""><dc:format>image/svg+xml</dc:format><dc:type
           rdf:resource="http://purl.org/dc/dcmitype/StillImage" /><dc:title /></cc:Work></rdf:RDF></metadata><g
     inkscape:label="Layer 1"
     inkscape:groupmode="layer"
     id="layer1"
     transform="translate(0,-177)"><path
       style="fill:#ffb516;fill-opacity:0;stroke:#000000;stroke-width:2;stroke-dasharray:none;stroke-opacity:1;paint-order:stroke fill markers"
       d="m 52.605975,235.5494 c 0,0 11.36628,12.40148 27.22618,0 18.42648,-14.4084 34.757775,0 34.757775,0 0.2461,-0.1058 15.04987,13.1789 33.35126,0.6106 18.30139,-12.56829 28.63269,-0.6106 28.63269,-0.6106"
       id="path789"
       sodipodi:nodetypes="csszc" /><g
       sodipodi:type="inkscape:box3d"
       id="g1107"
       style="fill:#ffb516;fill-opacity:0;stroke:#000000;stroke-width:7.55906;stroke-dasharray:none;stroke-opacity:1;paint-order:stroke fill markers"
       inkscape:perspectiveID="#perspective1105"
       inkscape:corner0="2.2204858 : 0.087099649 : 0 : 1"
       inkscape:corner7="1.2702221 : 0.0098284518 : 0.25 : 1"><path
         sodipodi:type="inkscape:box3dside"
         id="path1119"
         style="fill:#e9e9ff;fill-rule:evenodd;stroke:none;stroke-linejoin:round"
         inkscape:box3dsidetype="11"
         d="m -64.170506,175.92865 114.031644,19.00527 v 77.2712 L -64.170506,253.19985 Z"
         points="49.861138,194.93392 49.861138,272.20512 -64.170506,253.19985 -64.170506,175.92865 " /><path
         sodipodi:type="inkscape:box3dside"
         id="path1109"
         style="fill:#353564;fill-rule:evenodd;stroke:none;stroke-linejoin:round"
         inkscape:box3dsidetype="6"
         d="m -94.170505,180.92865 v 77.2712 l 29.999999,-5 v -77.2712 z"
         points="-94.170505,258.19985 -64.170506,253.19985 -64.170506,175.92865 -94.170505,180.92865 " /><path
         sodipodi:type="inkscape:box3dside"
         id="path1117"
         style="fill:#afafde;fill-rule:evenodd;stroke:none;stroke-linejoin:round"
         inkscape:box3dsidetype="13"
         d="m -94.170505,258.19985 114.031643,19.00527 30,-5 -114.031644,-19.00527 z"
         points="19.861138,277.20512 49.861138,272.20512 -64.170506,253.19985 -94.170505,258.19985 " /><path
         sodipodi:type="inkscape:box3dside"
         id="path1111"
         style="fill:#4d4d9f;fill-rule:evenodd;stroke:none;stroke-linejoin:round"
         inkscape:box3dsidetype="5"
         d="m -94.170505,180.92865 114.031643,19.00527 30,-5 -114.031644,-19.00527 z"
         points="19.861138,199.93392 49.861138,194.93392 -64.170506,175.92865 -94.170505,180.92865 " /><path
         sodipodi:type="inkscape:box3dside"
         id="path1115"
         style="fill:#d7d7ff;fill-rule:evenodd;stroke:none;stroke-linejoin:round"
         inkscape:box3dsidetype="14"
         d="m 19.861138,199.93392 v 77.2712 l 30,-5 v -77.2712 z"
         points="19.861138,277.20512 49.861138,272.20512 49.861138,194.93392 19.861138,199.93392 " /><path
         sodipodi:type="inkscape:box3dside"
         id="path1113"
         style="fill:#8686bf;fill-rule:evenodd;stroke:none;stroke-linejoin:round"
         inkscape:box3dsidetype="3"
         d="m -94.170505,180.92865 114.031643,19.00527 v 77.2712 L -94.170505,258.19985 Z"
         points="19.861138,199.93392 19.861138,277.20512 -94.170505,258.19985 -94.170505,180.92865 " /></g><g
       sodipodi:type="inkscape:box3d"
       id="g2879"
       style="fill:#ffb516;fill-opacity:0;stroke:#000000;stroke-width:0;stroke-dasharray:none;stroke-opacity:1;paint-order:stroke fill markers"
       inkscape:perspectiveID="#perspective1105"
       inkscape:corner0="0.68955243 : 0.021501672 : 0 : 1"
       inkscape:corner7="0.52605732 : 0.0052302785 : 0.25 : 1"><path
         sodipodi:type="inkscape:box3dside"
         id="path2891"
         style="fill:#e9e9ff;fill-rule:evenodd;stroke:none;stroke-linejoin:round"
         inkscape:box3dsidetype="11"
         d="m 119.5415,272.14529 19.61941,3.26991 v 16.27139 l -19.61941,-3.2699 z"
         points="139.16091,275.4152 139.16091,291.68659 119.5415,288.41669 119.5415,272.14529 " /><path
         sodipodi:type="inkscape:box3dside"
         id="path2881"
         style="fill:#353564;fill-rule:evenodd;stroke:none;stroke-linejoin:round"
         inkscape:box3dsidetype="6"
         d="m 89.541498,277.14529 v 16.2714 l 30.000002,-5 v -16.2714 z"
         points="89.541498,293.41669 119.5415,288.41669 119.5415,272.14529 89.541498,277.14529 " /><path
         sodipodi:type="inkscape:box3dside"
         id="path2889"
         style="fill:#afafde;fill-rule:evenodd;stroke:none;stroke-linejoin:round"
         inkscape:box3dsidetype="13"
         d="m 89.541498,293.41669 19.619412,3.2699 30,-5 -19.61941,-3.2699 z"
         points="109.16091,296.68659 139.16091,291.68659 119.5415,288.41669 89.541498,293.41669 " /><path
         sodipodi:type="inkscape:box3dside"
         id="path2883"
         style="fill:#4d4d9f;fill-rule:evenodd;stroke:none;stroke-linejoin:round"
         inkscape:box3dsidetype="5"
         d="m 89.541498,277.14529 19.619412,3.26991 30,-5 -19.61941,-3.26991 z"
         points="109.16091,280.4152 139.16091,275.4152 119.5415,272.14529 89.541498,277.14529 " /><path
         sodipodi:type="inkscape:box3dside"
         id="path2887"
         style="fill:#d7d7ff;fill-rule:evenodd;stroke:none;stroke-linejoin:round"
         inkscape:box3dsidetype="14"
         d="m 109.16091,280.4152 v 16.27139 l 30,-5 V 275.4152 Z"
         points="109.16091,296.68659 139.16091,291.68659 139.16091,275.4152 109.16091,280.4152 " /><path
         sodipodi:type="inkscape:box3dside"
         id="path2885"
         style="fill:#8686bf;fill-rule:evenodd;stroke:none;stroke-linejoin:round"
         inkscape:box3dsidetype="3"
         d="m 89.541498,277.14529 19.619412,3.26991 v 16.27139 l -19.619412,-3.2699 z"
         points="109.16091,280.4152 109.16091,296.68659 89.541498,293.41669 89.541498,277.14529 " /></g><circle
       style="fill:#ad01a2;fill-opacity:1;stroke:none;stroke-width:2;stroke-dasharray:none;stroke-opacity:1;paint-order:stroke fill markers"
       id="path3879"
       cx="142.42567"
       cy="239.37842"
       r="3.3284621" /><path
       style="fill:none;fill-opacity:1;stroke:#f08701;stroke-width:1.01607;stroke-dasharray:none;stroke-opacity:1;marker-end:url(#Arrow3);paint-order:stroke fill markers"
       d="m 142.43171,239.24258 27.99247,-14.62783"
       id="path7830"
       inkscape:transform-center-x="-14.096739"
       inkscape:transform-center-y="-7.423426" /><path
       style="fill:#ffb516;fill-opacity:0;stroke:#000000;stroke-width:2;stroke-dasharray:none;stroke-opacity:1;paint-order:stroke fill markers"
       d="m 52.605975,222.92373 c 0,0 11.36628,12.40148 27.22618,0 18.42648,-14.4084 34.757775,0 34.757775,0 0.2461,-0.1058 15.04987,13.1789 33.35126,0.6106 18.30139,-12.56829 28.63269,-0.6106 28.63269,-0.6106"
       id="path1223"
       sodipodi:nodetypes="csszc" /><path
       style="fill:#ffb516;fill-opacity:0;stroke:#000000;stroke-width:2;stroke-dasharray:none;stroke-opacity:1;paint-order:stroke fill markers"
       d="m 52.605975,208.98609 c 0,0 11.36628,12.40148 27.22618,0 18.42648,-14.4084 34.757775,0 34.757775,0 0.2461,-0.1058 15.04987,13.1789 33.35126,0.6106 18.30139,-12.56829 28.63269,-0.6106 28.63269,-0.6106"
       id="path1227"
       sodipodi:nodetypes="csszc" /><text
       xml:space="preserve"
       style="font-style:normal;font-weight:normal;font-size:10.5833px;line-height:1.25;font-family:sans-serif;fill:#375cba;fill-opacity:1;stroke:none;stroke-width:0.264583"
       x="145.98715"
       y="218.58487"
       id="text1231"><tspan
         sodipodi:role="line"
         id="tspan1229"
         style="fill:#375cba;fill-opacity:1;stroke-width:0.264583"
         x="145.98715"
         y="218.58487">$\underline{u}$</tspan></text><path
       style="fill:none;fill-opacity:1;stroke:#375cba;stroke-width:1.01607;stroke-dasharray:none;stroke-opacity:1;marker-end:url(#Arrow3);paint-order:stroke fill markers"
       d="M 142.49314,239.69339 129.36758,214.57572"
       id="path1233"
       inkscape:transform-center-x="6.4008461"
       inkscape:transform-center-y="-12.217536" /><path
       style="fill:#ffb516;fill-opacity:0;stroke:#000000;stroke-width:2;stroke-dasharray:none;stroke-opacity:1;paint-order:stroke fill markers"
       d="m 52.605975,249.084 c 0,0 11.36628,12.40148 27.22618,0 18.42648,-14.4084 34.757775,0 34.757775,0 0.2461,-0.1058 15.04987,13.1789 33.35126,0.6106 18.30139,-12.56829 28.63269,-0.6106 28.63269,-0.6106"
       id="path1235"
       sodipodi:nodetypes="csszc" /><text
       xml:space="preserve"
       style="font-style:normal;font-weight:normal;font-size:10.5833px;line-height:1.25;font-family:sans-serif;fill:#f08701;fill-opacity:1;stroke:none;stroke-width:0.264583"
       x="157.46835"
       y="254.70047"
       id="text1341"><tspan
         sodipodi:role="line"
         id="tspan1339"
         style="fill:#f08701;fill-opacity:1;stroke-width:0.264583"
         x="157.46835"
         y="254.70047">$\underline{a}$</tspan></text><path
       style="fill:#ffb516;fill-opacity:0;stroke:#000000;stroke-width:2;stroke-dasharray:none;stroke-opacity:1;paint-order:stroke fill markers"
       d="m 52.605975,193.91452 c 0,0 11.36628,12.40148 27.22618,0 18.42648,-14.4084 34.757775,0 34.757775,0 0.2461,-0.1058 15.04987,13.1789 33.35126,0.6106 18.30139,-12.56829 28.63269,-0.6106 28.63269,-0.6106"
       id="path1343"
       sodipodi:nodetypes="csszc" /></g></svg>
