<?xml version="1.0" encoding="UTF-8" standalone="no"?>
<!-- Created with Inkscape (http://www.inkscape.org/) -->

<svg
   inkscape:export-filename="../../current_course/figures/rand_vol.pdf"
   width="1189mm"
   height="841mm"
   viewBox="0 0 4493.8583 3178.5827"
   version="1.1"
   id="SVGRoot"
   sodipodi:docname="rand_vol.svg"
   inkscape:version="1.2.2 (b0a8486541, 2022-12-01)"
   inkscape:export-xdpi="48"
   inkscape:export-ydpi="48"
   xmlns:inkscape="http://www.inkscape.org/namespaces/inkscape"
   xmlns:sodipodi="http://sodipodi.sourceforge.net/DTD/sodipodi-0.dtd"
   xmlns="http://www.w3.org/2000/svg"
   xmlns:svg="http://www.w3.org/2000/svg">
  <sodipodi:namedview
     id="namedview30601"
     pagecolor="#828282"
     bordercolor="#ffffff"
     borderopacity="1"
     inkscape:showpageshadow="0"
     inkscape:pageopacity="0.45098039"
     inkscape:pagecheckerboard="1"
     inkscape:deskcolor="#505050"
     inkscape:document-units="px"
     showgrid="false"
     inkscape:zoom="1.718036"
     inkscape:cx="1637.6258"
     inkscape:cy="1093.3997"
     inkscape:window-width="1906"
     inkscape:window-height="1120"
     inkscape:window-x="5"
     inkscape:window-y="47"
     inkscape:window-maximized="1"
     inkscape:current-layer="layer1" />
  <defs
     id="defs30596">
    <marker
       style="overflow:visible"
       id="Arrow3"
       refX="0"
       refY="0"
       orient="auto-start-reverse"
       inkscape:stockid="Arrow3"
       markerWidth="4.2071066"
       markerHeight="7"
       viewBox="0 0 4.2071068 7"
       inkscape:isstock="true"
       inkscape:collect="always"
       preserveAspectRatio="xMidYMid">
      <path
         style="fill:none;stroke:context-stroke;stroke-width:1;stroke-linecap:round"
         d="M 3,-3 0,0 3,3"
         id="arrow3"
         transform="rotate(180,0.125,0)"
         sodipodi:nodetypes="ccc" />
    </marker>
    <inkscape:path-effect
       effect="spiro"
       id="path-effect41188"
       is_visible="true"
       lpeversion="1" />
    <inkscape:path-effect
       effect="spiro"
       id="path-effect41182"
       is_visible="true"
       lpeversion="1" />
    <inkscape:path-effect
       effect="spiro"
       id="path-effect41160"
       is_visible="true"
       lpeversion="1" />
    <inkscape:perspective
       sodipodi:type="inkscape:persp3d"
       inkscape:vp_x="-1441.701 : 433.62836 : 0"
       inkscape:vp_y="13.323746 : 1707.7829 : 0"
       inkscape:vp_z="1920.8583 : 608.11471 : 0"
       inkscape:persp3d-origin="2246.9291 : 1059.5276 : 1"
       id="perspective30970" />
  </defs>
  <g
     inkscape:label="Layer 1"
     inkscape:groupmode="layer"
     id="layer1">
    <path
       style="fill:none;fill-opacity:0;stroke:#000000;stroke-width:2;stroke-linejoin:miter;stroke-dasharray:none;stroke-opacity:1;paint-order:stroke fill markers"
       d="m 1203.0302,962.68988 c -26.106,7.87635 -51.2479,18.94279 -74.6885,32.87484 -11.05,6.56758 -22.1082,14.17118 -28.4895,25.32978 -5.462,9.5511 -6.9726,20.8185 -7.6999,31.797 -2.0601,31.097 1.3902,62.6947 11.5498,92.1573 6.9471,20.1465 17.2986,39.6045 33.1093,53.8932 14.4989,13.1031 32.7153,21.1553 50.0491,30.1802 5.2438,2.7302 10.435,5.5677 15.7847,8.084 8.2549,3.8828 16.9089,7.0131 24.6395,11.8564 7.4444,4.664 13.8388,10.7959 20.7895,16.168 7.5203,5.8122 15.7009,10.7406 23.0996,16.7068 3.0957,2.4964 6.0497,5.1706 9.2398,7.5451 7.4553,5.5492 16.2173,9.4078 25.4095,10.7787 15.3987,2.2965 31.2301,-2.4832 44.5279,-10.5802 13.2979,-8.0971 24.3792,-19.3329 34.7805,-30.9177 6.1952,-6.9002 12.2363,-14.0002 19.336,-19.9657 7.0998,-5.9656 15.4128,-10.8064 24.5533,-12.3701 8.6117,-1.4732 17.5048,0.036 25.7949,2.7937 8.2902,2.7577 16.1107,6.7341 24.0564,10.3669 7.9457,3.6329 16.1387,6.96 24.7726,8.2973 8.6338,1.3373 17.8251,0.5488 25.474,-3.6733 4.2323,-2.3362 7.8584,-5.6349 11.1648,-9.1617 14.8771,-15.8686 23.7676,-36.6359 28.2647,-57.9177 4.497,-21.2819 4.851,-43.2105 4.4596,-64.9588 -0.2316,-12.8712 -0.8273,-26.1913 -6.5448,-37.7252 -6.3118,-12.7328 -18.2719,-21.879 -31.1032,-27.9883 -12.8313,-6.1092 -26.721,-9.585 -40.2506,-13.9342 -19.1266,-6.1484 -38.0641,-14.1764 -58.1338,-15.0899 -15.8671,-0.7222 -31.7442,3.1173 -46.1992,9.7006 -8.8296,4.0213 -17.1627,9.0432 -25.7944,13.4733 -12.1248,6.2229 -24.9687,11.3114 -38.43,13.4396 -13.4613,2.1283 -27.6168,1.1713 -40.1085,-4.2778 -10.8554,-4.7353 -20.0986,-12.6896 -27.5404,-21.9028 -7.4418,-9.2132 -13.1787,-19.6822 -18.2737,-30.37354 -3.9872,-8.36662 -7.7421,-17.10881 -14.2447,-23.71295 -6.1565,-6.25264 -14.6073,-10.19426 -23.3543,-10.89283 z"
       id="path41158"
       inkscape:path-effect="#path-effect41160"
       inkscape:original-d="m 1203.0302,962.68988 c -26.489,4.70368 -51.0341,15.30475 -74.6885,32.87484 -9.1751,6.81508 -21.4573,13.84498 -28.4895,25.32978 -4.717,7.7035 -6.4052,22.2818 -7.6999,31.797 -3.9846,29.2837 0.8933,66.6317 11.5498,92.1573 8.3332,19.9603 20.6875,38.9886 33.1093,53.8932 14.1426,16.9692 32.886,22.2967 50.0491,30.1802 5.3234,2.4452 10.4696,5.6038 15.7847,8.084 13.2278,6.1723 12.3678,3.8039 24.6395,11.8564 14.2746,9.3667 9.7418,7.5361 20.7895,16.168 7.5679,5.9128 15.4767,10.9341 23.0996,16.7068 3.1361,2.375 5.9466,5.6314 9.2398,7.5451 4.1112,2.3889 19.804,9.0972 25.4095,10.7787 25.4077,7.6215 59.4637,-21.7315 79.3084,-41.4979 12.0092,-11.9617 28.6399,-30.0487 43.8893,-32.3358 32.4997,-4.8745 68.1428,40.1508 100.0979,17.7846 3.8585,-2.7006 8.0581,-4.9719 11.1648,-9.1617 29.0834,-39.2229 32.7243,-68.1108 32.7243,-122.8765 0,-9.683 -0.3816,-29.9273 -6.5448,-37.7252 -19.6262,-24.832 -46.4328,-33.0147 -71.3538,-41.9225 -19.3427,-6.9138 -38.1184,-13.5505 -58.1338,-15.0899 -16.2883,-1.2529 -30.7217,2.807 -46.1992,9.7006 -8.7414,3.8935 -16.9355,9.9687 -25.7944,13.4733 -22.8432,9.037 -54.7269,16.9396 -78.5385,9.1618 -16.2312,-5.3016 -36.4123,-34.3772 -45.8141,-52.27634 -3.2739,-6.23294 -8.5826,-20.24695 -14.2447,-23.71295 -7.5182,-4.6022 -15.5696,-7.26189 -23.3543,-10.89283 z" />
    <text
       xml:space="preserve"
       style="font-style:normal;font-weight:normal;font-size:40px;line-height:1.25;font-family:sans-serif;fill:#000000;fill-opacity:1;stroke:none"
       x="1310.7452"
       y="1146.3398"
       id="text41164"><tspan
         sodipodi:role="line"
         id="tspan41162"
         x="1310.7452"
         y="1146.3398" /></text>
    <text
       xml:space="preserve"
       style="font-style:normal;font-weight:normal;font-size:40px;line-height:1.25;font-family:sans-serif;fill:#000000;fill-opacity:1;stroke:none"
       x="1077.4185"
       y="942.70312"
       id="text41168"><tspan
         sodipodi:role="line"
         id="tspan41166"
         x="1077.4185"
         y="942.70312">$A$</tspan></text>
    <text
       xml:space="preserve"
       style="font-style:normal;font-weight:normal;font-size:40px;line-height:1.25;font-family:sans-serif;fill:#000000;fill-opacity:1;stroke:none"
       x="1500.2328"
       y="1020.1113"
       id="text41172"><tspan
         sodipodi:role="line"
         id="tspan41170"
         x="1500.2328"
         y="1020.1113">$dA$</tspan></text>
    <text
       xml:space="preserve"
       style="font-style:normal;font-weight:normal;font-size:40px;line-height:1.25;font-family:sans-serif;fill:#000000;fill-opacity:1;stroke:none"
       x="1640.71"
       y="1134.0891"
       id="text41176"><tspan
         sodipodi:role="line"
         id="tspan41174"
         x="1640.71"
         y="1134.0891">$\underline{n}$</tspan></text>
    <g
       id="g41230">
      <path
         style="fill:none;fill-opacity:0;stroke:#000000;stroke-width:1.74316;stroke-linejoin:miter;stroke-dasharray:none;stroke-opacity:1;paint-order:stroke fill markers"
         d="m 1471.9862,1082.478 c 9.9981,5.8425 18.4071,14.375 24.1033,24.4571 5.6963,10.0822 8.6652,21.6882 8.51,33.2672 -0.037,2.7882 -0.2521,5.574 -0.6425,8.335"
         id="path41180"
         inkscape:path-effect="#path-effect41182"
         inkscape:original-d="m 1471.9862,1082.478 c 11.4154,19.2626 21.1996,38.4635 32.6133,57.7243 11.4137,19.2609 -0.4274,5.5576 -0.6425,8.335"
         sodipodi:nodetypes="csc" />
      <path
         style="fill:none;fill-opacity:0;stroke:#000000;stroke-width:1.74316;stroke-linejoin:miter;stroke-dasharray:none;stroke-opacity:1;paint-order:stroke fill markers"
         d="m 1507.9589,1081.6653 c 9.9359,6.0845 18.2495,14.7919 23.8679,24.9987 5.6184,10.2068 8.5284,21.8886 8.3544,33.5383 -0.042,2.7881 -0.2563,5.5735 -0.6425,8.335"
         id="path41184"
         inkscape:path-effect="#path-effect41188"
         inkscape:original-d="m 1507.9589,1081.6653 c 11.4154,19.2626 20.8086,39.2762 32.2223,58.537 11.4137,19.2609 -0.4274,5.5576 -0.6425,8.335"
         sodipodi:nodetypes="csc" />
      <path
         style="fill:none;fill-opacity:0;stroke:#000000;stroke-width:2;stroke-linejoin:miter;stroke-dasharray:none;stroke-opacity:1;paint-order:stroke fill markers"
         d="m 1503.903,1147.6604 h 35.5817"
         id="path41190" />
      <path
         style="fill:none;fill-opacity:0;stroke:#000000;stroke-width:1.96322;stroke-linejoin:miter;stroke-dasharray:none;stroke-opacity:1;paint-order:stroke fill markers"
         d="m 1473.7359,1083.203 35.826,-1.5554"
         id="path41192"
         sodipodi:nodetypes="cc" />
    </g>
    <path
       style="fill:#808080;fill-opacity:0;stroke:#000000;stroke-width:0;stroke-linejoin:miter;stroke-dasharray:none;stroke-opacity:1;paint-order:stroke fill markers"
       d="m 1302.7723,1297.8796 c -8.4061,-1.9009 -16.6629,-6.0765 -24.4423,-12.3609 -3.4952,-2.8236 -11.8545,-9.1447 -18.5761,-14.0469 -6.7216,-4.9022 -16.1808,-12.1109 -21.0203,-16.0193 -7.409,-5.9836 -12.8645,-9.0975 -34.5299,-19.7091 -45.9377,-22.5003 -59.9737,-31.0862 -72.1064,-44.1081 -17.178,-18.4369 -29.5419,-47.2246 -36.2492,-84.4011 -2.5314,-14.0306 -2.6022,-61.3662 -0.1064,-71.1269 5.1494,-20.1387 16.9294,-31.3506 51.5104,-49.02617 15.2656,-7.80283 29.6659,-13.94704 45.8393,-19.55838 9.1458,-3.17314 10.5092,-3.40456 14.6244,-2.48232 13.0119,2.91604 20.2585,10.34057 30.8588,31.61665 4.2144,8.45882 10.2345,19.22482 13.3781,23.92462 10.0704,15.0553 23.3825,26.3671 37.0477,31.4808 8.7527,3.2754 15.3758,4.0903 28.9261,3.5593 19.1584,-0.7509 29.6283,-4.324 61.1056,-20.8541 21.9256,-11.514 32.9434,-14.9188 50.8399,-15.7105 15.2497,-0.6747 23.4573,1.1362 63.2438,13.9543 35.4962,11.4359 47.9679,16.8468 58.1074,25.2104 11.9855,9.8862 17.5055,21.2006 19.5873,40.1485 1.4214,12.9368 0.4574,52.5101 -1.6091,66.0587 -4.7961,31.4442 -16.8957,57.5088 -33.717,72.6326 -7.2827,6.5479 -12.635,8.8098 -22.0098,9.3019 -11.6969,0.6139 -18.7724,-1.4898 -45.2055,-13.4407 -18.168,-8.2141 -30.994,-10.4213 -42.7561,-7.3576 -12.3113,3.2067 -16.015,6.0322 -41.1036,31.3573 -24.365,24.5948 -32.3482,31.0108 -45.4626,36.5373 -12.3916,5.222 -25.5285,6.827 -36.1745,4.4197 z m 21.5092,-151.0358 c 0,-1.2851 1.1259,-2.4127 3.3277,-3.3326 5.9277,-2.4768 5.9624,-9.4458 0.059,-11.9123 -2.9666,-1.2395 -3.3871,-1.8481 -3.3871,-4.9017 0,-3.331 0.1252,-3.4589 2.8091,-2.8695 2.1308,0.4681 2.9651,0.2106 3.455,-1.0662 0.7479,-1.9489 -0.8829,-3.2695 -4.0643,-3.2912 -1.543,-0.01 -2.1998,-0.5987 -2.1998,-1.9703 0,-1.3036 -0.6518,-1.9554 -1.9554,-1.9554 -1.2284,0 -1.9554,0.6518 -1.9554,1.7532 0,1.1324 -1.1213,2.0844 -3.1669,2.6886 -6.1234,1.8088 -5.953,10.1429 0.2553,12.4863 2.5429,0.9598 2.9116,1.5806 2.9116,4.9014 0,3.5286 -0.1695,3.7599 -2.3534,3.2118 -1.2943,-0.3249 -3.0542,-0.8596 -3.9107,-1.1883 -1.1782,-0.4521 -1.5574,0.02 -1.5574,1.9396 0,2.2042 0.5135,2.6194 3.9108,3.1627 2.9473,0.4713 3.9107,1.0763 3.9107,2.4558 0,1.1786 0.6963,1.8304 1.9554,1.8304 1.2992,0 1.9554,-0.6518 1.9554,-1.9423 z m 46.9291,0 c 0,-1.2807 1.1205,-2.4104 3.2895,-3.3167 5.8657,-2.4508 5.3184,-9.996 -0.8964,-12.3589 -1.9281,-0.733 -2.3931,-1.5946 -2.3931,-4.4336 0,-3.3722 0.1209,-3.4973 2.8091,-2.9069 2.1308,0.4681 2.9651,0.2106 3.4551,-1.0662 0.7478,-1.9489 -0.883,-3.2695 -4.0644,-3.2912 -1.543,-0.01 -2.1998,-0.5987 -2.1998,-1.9703 0,-1.3036 -0.6518,-1.9554 -1.9554,-1.9554 -1.2284,0 -1.9554,0.6518 -1.9554,1.7532 0,1.1324 -1.1213,2.0844 -3.1669,2.6886 -6.1234,1.8088 -5.953,10.1429 0.2553,12.4863 2.5429,0.9598 2.9116,1.5806 2.9116,4.9014 0,3.5286 -0.1694,3.7599 -2.3533,3.2118 -1.2944,-0.3249 -3.0543,-0.8596 -3.9108,-1.1883 -1.1782,-0.4521 -1.5574,0.02 -1.5574,1.9396 0,2.2042 0.5135,2.6194 3.9108,3.1627 2.9473,0.4713 3.9107,1.0763 3.9107,2.4558 0,1.1786 0.6963,1.8304 1.9554,1.8304 1.2992,0 1.9554,-0.6518 1.9554,-1.9423 z m 170.1181,-7.1894 c 0,-21.3588 -9.2194,-40.9079 -25.4933,-54.0566 l -6.6565,-5.3782 -18.7986,0.7974 c -10.9723,0.4653 -18.9214,1.2043 -19.0934,1.775 -0.1622,0.5377 1.4956,2.0776 3.684,3.4219 6.2714,3.8526 16.6203,15.4281 20.5411,22.9757 5.4349,10.4624 7.043,17.0252 7.1258,29.0815 l 0.072,10.5055 h 19.3094 19.3094 v -9.1316 z m -188.2513,-7.4891 c 3.8896,-10.8364 4.7689,-14.2535 3.7322,-14.5036 -2.8948,-0.6982 -4.0752,1.0044 -7.1256,10.2778 -3.6027,10.9522 -4.3699,12.2218 -5.2548,8.6958 -0.3475,-1.3844 -1.9847,-6.2561 -3.6384,-10.8262 -2.6865,-7.4244 -3.2681,-8.3091 -5.4629,-8.3091 -1.8439,0 -2.3076,0.3877 -1.8597,1.5549 0.3281,0.8552 2.685,7.4692 5.2374,14.6978 4.3013,12.1812 4.8107,13.1226 6.9621,12.866 2.0449,-0.2439 2.9272,-1.9649 7.4097,-14.4534 z"
       id="path41301" />
    <path
       style="fill:#808080;fill-opacity:0;stroke:#000000;stroke-width:0;stroke-linejoin:miter;stroke-dasharray:none;stroke-opacity:1;paint-order:stroke fill markers"
       d="m 1302.7723,1297.8796 c -8.4061,-1.9009 -16.6629,-6.0765 -24.4423,-12.3609 -3.4952,-2.8236 -11.8545,-9.1447 -18.5761,-14.0469 -6.7216,-4.9022 -16.1808,-12.1109 -21.0203,-16.0193 -7.409,-5.9836 -12.8645,-9.0975 -34.5299,-19.7091 -45.9377,-22.5003 -59.9737,-31.0862 -72.1064,-44.1081 -17.178,-18.4369 -29.5419,-47.2246 -36.2492,-84.4011 -2.5314,-14.0306 -2.6022,-61.3662 -0.1064,-71.1269 5.1494,-20.1387 16.9294,-31.3506 51.5104,-49.02617 15.2656,-7.80283 29.6659,-13.94704 45.8393,-19.55838 9.1458,-3.17314 10.5092,-3.40456 14.6244,-2.48232 13.0119,2.91604 20.2585,10.34057 30.8588,31.61665 4.2144,8.45882 10.2345,19.22482 13.3781,23.92462 10.0704,15.0553 23.3825,26.3671 37.0477,31.4808 8.7527,3.2754 15.3758,4.0903 28.9261,3.5593 19.1584,-0.7509 29.6283,-4.324 61.1056,-20.8541 21.9256,-11.514 32.9434,-14.9188 50.8399,-15.7105 15.2497,-0.6747 23.4573,1.1362 63.2438,13.9543 35.4962,11.4359 47.9679,16.8468 58.1074,25.2104 11.9855,9.8862 17.5055,21.2006 19.5873,40.1485 1.4214,12.9368 0.4574,52.5101 -1.6091,66.0587 -4.7961,31.4442 -16.8957,57.5088 -33.717,72.6326 -7.2827,6.5479 -12.635,8.8098 -22.0098,9.3019 -11.6969,0.6139 -18.7724,-1.4898 -45.2055,-13.4407 -18.168,-8.2141 -30.994,-10.4213 -42.7561,-7.3576 -12.3113,3.2067 -16.015,6.0322 -41.1036,31.3573 -24.365,24.5948 -32.3482,31.0108 -45.4626,36.5373 -12.3916,5.222 -25.5285,6.827 -36.1745,4.4197 z m 21.5092,-151.0358 c 0,-1.2851 1.1259,-2.4127 3.3277,-3.3326 5.9277,-2.4768 5.9624,-9.4458 0.059,-11.9123 -2.9666,-1.2395 -3.3871,-1.8481 -3.3871,-4.9017 0,-3.331 0.1252,-3.4589 2.8091,-2.8695 2.1308,0.4681 2.9651,0.2106 3.455,-1.0662 0.7479,-1.9489 -0.8829,-3.2695 -4.0643,-3.2912 -1.543,-0.01 -2.1998,-0.5987 -2.1998,-1.9703 0,-1.3036 -0.6518,-1.9554 -1.9554,-1.9554 -1.2284,0 -1.9554,0.6518 -1.9554,1.7532 0,1.1324 -1.1213,2.0844 -3.1669,2.6886 -6.1234,1.8088 -5.953,10.1429 0.2553,12.4863 2.5429,0.9598 2.9116,1.5806 2.9116,4.9014 0,3.5286 -0.1695,3.7599 -2.3534,3.2118 -1.2943,-0.3249 -3.0542,-0.8596 -3.9107,-1.1883 -1.1782,-0.4521 -1.5574,0.02 -1.5574,1.9396 0,2.2042 0.5135,2.6194 3.9108,3.1627 2.9473,0.4713 3.9107,1.0763 3.9107,2.4558 0,1.1786 0.6963,1.8304 1.9554,1.8304 1.2992,0 1.9554,-0.6518 1.9554,-1.9423 z m 46.9291,0 c 0,-1.2807 1.1205,-2.4104 3.2895,-3.3167 5.8657,-2.4508 5.3184,-9.996 -0.8964,-12.3589 -1.9281,-0.733 -2.3931,-1.5946 -2.3931,-4.4336 0,-3.3722 0.1209,-3.4973 2.8091,-2.9069 2.1308,0.4681 2.9651,0.2106 3.4551,-1.0662 0.7478,-1.9489 -0.883,-3.2695 -4.0644,-3.2912 -1.543,-0.01 -2.1998,-0.5987 -2.1998,-1.9703 0,-1.3036 -0.6518,-1.9554 -1.9554,-1.9554 -1.2284,0 -1.9554,0.6518 -1.9554,1.7532 0,1.1324 -1.1213,2.0844 -3.1669,2.6886 -6.1234,1.8088 -5.953,10.1429 0.2553,12.4863 2.5429,0.9598 2.9116,1.5806 2.9116,4.9014 0,3.5286 -0.1694,3.7599 -2.3533,3.2118 -1.2944,-0.3249 -3.0543,-0.8596 -3.9108,-1.1883 -1.1782,-0.4521 -1.5574,0.02 -1.5574,1.9396 0,2.2042 0.5135,2.6194 3.9108,3.1627 2.9473,0.4713 3.9107,1.0763 3.9107,2.4558 0,1.1786 0.6963,1.8304 1.9554,1.8304 1.2992,0 1.9554,-0.6518 1.9554,-1.9423 z m 170.1181,-7.1894 c 0,-21.3588 -9.2194,-40.9079 -25.4933,-54.0566 l -6.6565,-5.3782 -18.7986,0.7974 c -10.9723,0.4653 -18.9214,1.2043 -19.0934,1.775 -0.1622,0.5377 1.4956,2.0776 3.684,3.4219 6.2714,3.8526 16.6203,15.4281 20.5411,22.9757 5.4349,10.4624 7.043,17.0252 7.1258,29.0815 l 0.072,10.5055 h 19.3094 19.3094 v -9.1316 z m -188.2513,-7.4891 c 3.8896,-10.8364 4.7689,-14.2535 3.7322,-14.5036 -2.8948,-0.6982 -4.0752,1.0044 -7.1256,10.2778 -3.6027,10.9522 -4.3699,12.2218 -5.2548,8.6958 -0.3475,-1.3844 -1.9847,-6.2561 -3.6384,-10.8262 -2.6865,-7.4244 -3.2681,-8.3091 -5.4629,-8.3091 -1.8439,0 -2.3076,0.3877 -1.8597,1.5549 0.3281,0.8552 2.685,7.4692 5.2374,14.6978 4.3013,12.1812 4.8107,13.1226 6.9621,12.866 2.0449,-0.2439 2.9272,-1.9649 7.4097,-14.4534 z"
       id="path41303" />
    <path
       style="fill:#8c8c8c;fill-opacity:0;stroke:#3b3b3b;stroke-width:0;stroke-linejoin:miter;stroke-dasharray:none;stroke-opacity:1;paint-order:stroke fill markers"
       d="m 1302.7723,1297.8796 c -8.4061,-1.9009 -16.6629,-6.0765 -24.4423,-12.3609 -3.4952,-2.8236 -11.8545,-9.1447 -18.5761,-14.0469 -6.7216,-4.9022 -16.1808,-12.1109 -21.0203,-16.0193 -7.409,-5.9836 -12.8645,-9.0975 -34.5299,-19.7091 -45.9377,-22.5003 -59.9737,-31.0862 -72.1064,-44.1081 -17.178,-18.4369 -29.5419,-47.2246 -36.2492,-84.4011 -2.5314,-14.0306 -2.6022,-61.3662 -0.1064,-71.1269 5.1494,-20.1387 16.9294,-31.3506 51.5104,-49.02617 15.2656,-7.80283 29.6659,-13.94704 45.8393,-19.55838 9.1458,-3.17314 10.5092,-3.40456 14.6244,-2.48232 13.0119,2.91604 20.2585,10.34057 30.8588,31.61665 4.2144,8.45882 10.2345,19.22482 13.3781,23.92462 10.0704,15.0553 23.3825,26.3671 37.0477,31.4808 8.7527,3.2754 15.3758,4.0903 28.9261,3.5593 19.1584,-0.7509 29.6283,-4.324 61.1056,-20.8541 21.9256,-11.514 32.9434,-14.9188 50.8399,-15.7105 15.2497,-0.6747 23.4573,1.1362 63.2438,13.9543 35.4962,11.4359 47.9679,16.8468 58.1074,25.2104 11.9855,9.8862 17.5055,21.2006 19.5873,40.1485 1.4214,12.9368 0.4574,52.5101 -1.6091,66.0587 -4.7961,31.4442 -16.8957,57.5088 -33.717,72.6326 -7.2827,6.5479 -12.635,8.8098 -22.0098,9.3019 -11.6969,0.6139 -18.7724,-1.4898 -45.2055,-13.4407 -18.168,-8.2141 -30.994,-10.4213 -42.7561,-7.3576 -12.3113,3.2067 -16.015,6.0322 -41.1036,31.3573 -24.365,24.5948 -32.3482,31.0108 -45.4626,36.5373 -12.3916,5.222 -25.5285,6.827 -36.1745,4.4197 z m 21.5092,-151.0358 c 0,-1.2851 1.1259,-2.4127 3.3277,-3.3326 5.9277,-2.4768 5.9624,-9.4458 0.059,-11.9123 -2.9666,-1.2395 -3.3871,-1.8481 -3.3871,-4.9017 0,-3.331 0.1252,-3.4589 2.8091,-2.8695 2.1308,0.4681 2.9651,0.2106 3.455,-1.0662 0.7479,-1.9489 -0.8829,-3.2695 -4.0643,-3.2912 -1.543,-0.01 -2.1998,-0.5987 -2.1998,-1.9703 0,-1.3036 -0.6518,-1.9554 -1.9554,-1.9554 -1.2284,0 -1.9554,0.6518 -1.9554,1.7532 0,1.1324 -1.1213,2.0844 -3.1669,2.6886 -6.1234,1.8088 -5.953,10.1429 0.2553,12.4863 2.5429,0.9598 2.9116,1.5806 2.9116,4.9014 0,3.5286 -0.1695,3.7599 -2.3534,3.2118 -1.2943,-0.3249 -3.0542,-0.8596 -3.9107,-1.1883 -1.1782,-0.4521 -1.5574,0.02 -1.5574,1.9396 0,2.2042 0.5135,2.6194 3.9108,3.1627 2.9473,0.4713 3.9107,1.0763 3.9107,2.4558 0,1.1786 0.6963,1.8304 1.9554,1.8304 1.2992,0 1.9554,-0.6518 1.9554,-1.9423 z m 46.9291,0 c 0,-1.2807 1.1205,-2.4104 3.2895,-3.3167 5.8657,-2.4508 5.3184,-9.996 -0.8964,-12.3589 -1.9281,-0.733 -2.3931,-1.5946 -2.3931,-4.4336 0,-3.3722 0.1209,-3.4973 2.8091,-2.9069 2.1308,0.4681 2.9651,0.2106 3.4551,-1.0662 0.7478,-1.9489 -0.883,-3.2695 -4.0644,-3.2912 -1.543,-0.01 -2.1998,-0.5987 -2.1998,-1.9703 0,-1.3036 -0.6518,-1.9554 -1.9554,-1.9554 -1.2284,0 -1.9554,0.6518 -1.9554,1.7532 0,1.1324 -1.1213,2.0844 -3.1669,2.6886 -6.1234,1.8088 -5.953,10.1429 0.2553,12.4863 2.5429,0.9598 2.9116,1.5806 2.9116,4.9014 0,3.5286 -0.1694,3.7599 -2.3533,3.2118 -1.2944,-0.3249 -3.0543,-0.8596 -3.9108,-1.1883 -1.1782,-0.4521 -1.5574,0.02 -1.5574,1.9396 0,2.2042 0.5135,2.6194 3.9108,3.1627 2.9473,0.4713 3.9107,1.0763 3.9107,2.4558 0,1.1786 0.6963,1.8304 1.9554,1.8304 1.2992,0 1.9554,-0.6518 1.9554,-1.9423 z m 170.1181,-7.1894 c 0,-21.3588 -9.2194,-40.9079 -25.4933,-54.0566 l -6.6565,-5.3782 -18.7986,0.7974 c -10.9723,0.4653 -18.9214,1.2043 -19.0934,1.775 -0.1622,0.5377 1.4956,2.0776 3.684,3.4219 6.2714,3.8526 16.6203,15.4281 20.5411,22.9757 5.4349,10.4624 7.043,17.0252 7.1258,29.0815 l 0.072,10.5055 h 19.3094 19.3094 v -9.1316 z m -188.2513,-7.4891 c 3.8896,-10.8364 4.7689,-14.2535 3.7322,-14.5036 -2.8948,-0.6982 -4.0752,1.0044 -7.1256,10.2778 -3.6027,10.9522 -4.3699,12.2218 -5.2548,8.6958 -0.3475,-1.3844 -1.9847,-6.2561 -3.6384,-10.8262 -2.6865,-7.4244 -3.2681,-8.3091 -5.4629,-8.3091 -1.8439,0 -2.3076,0.3877 -1.8597,1.5549 0.3281,0.8552 2.685,7.4692 5.2374,14.6978 4.3013,12.1812 4.8107,13.1226 6.9621,12.866 2.0449,-0.2439 2.9272,-1.9649 7.4097,-14.4534 z"
       id="path41305" />
    <path
       style="fill:#8c8c8c;fill-opacity:0;stroke:#3b3b3b;stroke-width:0;stroke-linejoin:miter;stroke-dasharray:none;stroke-opacity:1;paint-order:stroke fill markers"
       d="m 1302.7723,1297.8796 c -8.4061,-1.9009 -16.6629,-6.0765 -24.4423,-12.3609 -3.4952,-2.8236 -11.8545,-9.1447 -18.5761,-14.0469 -6.7216,-4.9022 -16.1808,-12.1109 -21.0203,-16.0193 -7.409,-5.9836 -12.8645,-9.0975 -34.5299,-19.7091 -45.9377,-22.5003 -59.9737,-31.0862 -72.1064,-44.1081 -17.178,-18.4369 -29.5419,-47.2246 -36.2492,-84.4011 -2.5314,-14.0306 -2.6022,-61.3662 -0.1064,-71.1269 5.1494,-20.1387 16.9294,-31.3506 51.5104,-49.02617 15.2656,-7.80283 29.6659,-13.94704 45.8393,-19.55838 9.1458,-3.17314 10.5092,-3.40456 14.6244,-2.48232 13.0119,2.91604 20.2585,10.34057 30.8588,31.61665 4.2144,8.45882 10.2345,19.22482 13.3781,23.92462 10.0704,15.0553 23.3825,26.3671 37.0477,31.4808 8.7527,3.2754 15.3758,4.0903 28.9261,3.5593 19.1584,-0.7509 29.6283,-4.324 61.1056,-20.8541 21.9256,-11.514 32.9434,-14.9188 50.8399,-15.7105 15.2497,-0.6747 23.4573,1.1362 63.2438,13.9543 35.4962,11.4359 47.9679,16.8468 58.1074,25.2104 11.9855,9.8862 17.5055,21.2006 19.5873,40.1485 1.4214,12.9368 0.4574,52.5101 -1.6091,66.0587 -4.7961,31.4442 -16.8957,57.5088 -33.717,72.6326 -7.2827,6.5479 -12.635,8.8098 -22.0098,9.3019 -11.6969,0.6139 -18.7724,-1.4898 -45.2055,-13.4407 -18.168,-8.2141 -30.994,-10.4213 -42.7561,-7.3576 -12.3113,3.2067 -16.015,6.0322 -41.1036,31.3573 -24.365,24.5948 -32.3482,31.0108 -45.4626,36.5373 -12.3916,5.222 -25.5285,6.827 -36.1745,4.4197 z m 21.5092,-151.0358 c 0,-1.2851 1.1259,-2.4127 3.3277,-3.3326 5.9277,-2.4768 5.9624,-9.4458 0.059,-11.9123 -2.9666,-1.2395 -3.3871,-1.8481 -3.3871,-4.9017 0,-3.331 0.1252,-3.4589 2.8091,-2.8695 2.1308,0.4681 2.9651,0.2106 3.455,-1.0662 0.7479,-1.9489 -0.8829,-3.2695 -4.0643,-3.2912 -1.543,-0.01 -2.1998,-0.5987 -2.1998,-1.9703 0,-1.3036 -0.6518,-1.9554 -1.9554,-1.9554 -1.2284,0 -1.9554,0.6518 -1.9554,1.7532 0,1.1324 -1.1213,2.0844 -3.1669,2.6886 -6.1234,1.8088 -5.953,10.1429 0.2553,12.4863 2.5429,0.9598 2.9116,1.5806 2.9116,4.9014 0,3.5286 -0.1695,3.7599 -2.3534,3.2118 -1.2943,-0.3249 -3.0542,-0.8596 -3.9107,-1.1883 -1.1782,-0.4521 -1.5574,0.02 -1.5574,1.9396 0,2.2042 0.5135,2.6194 3.9108,3.1627 2.9473,0.4713 3.9107,1.0763 3.9107,2.4558 0,1.1786 0.6963,1.8304 1.9554,1.8304 1.2992,0 1.9554,-0.6518 1.9554,-1.9423 z m 46.9291,0 c 0,-1.2807 1.1205,-2.4104 3.2895,-3.3167 5.8657,-2.4508 5.3184,-9.996 -0.8964,-12.3589 -1.9281,-0.733 -2.3931,-1.5946 -2.3931,-4.4336 0,-3.3722 0.1209,-3.4973 2.8091,-2.9069 2.1308,0.4681 2.9651,0.2106 3.4551,-1.0662 0.7478,-1.9489 -0.883,-3.2695 -4.0644,-3.2912 -1.543,-0.01 -2.1998,-0.5987 -2.1998,-1.9703 0,-1.3036 -0.6518,-1.9554 -1.9554,-1.9554 -1.2284,0 -1.9554,0.6518 -1.9554,1.7532 0,1.1324 -1.1213,2.0844 -3.1669,2.6886 -6.1234,1.8088 -5.953,10.1429 0.2553,12.4863 2.5429,0.9598 2.9116,1.5806 2.9116,4.9014 0,3.5286 -0.1694,3.7599 -2.3533,3.2118 -1.2944,-0.3249 -3.0543,-0.8596 -3.9108,-1.1883 -1.1782,-0.4521 -1.5574,0.02 -1.5574,1.9396 0,2.2042 0.5135,2.6194 3.9108,3.1627 2.9473,0.4713 3.9107,1.0763 3.9107,2.4558 0,1.1786 0.6963,1.8304 1.9554,1.8304 1.2992,0 1.9554,-0.6518 1.9554,-1.9423 z m 170.1181,-7.1894 c 0,-21.3588 -9.2194,-40.9079 -25.4933,-54.0566 l -6.6565,-5.3782 -18.7986,0.7974 c -10.9723,0.4653 -18.9214,1.2043 -19.0934,1.775 -0.1622,0.5377 1.4956,2.0776 3.684,3.4219 6.2714,3.8526 16.6203,15.4281 20.5411,22.9757 5.4349,10.4624 7.043,17.0252 7.1258,29.0815 l 0.072,10.5055 h 19.3094 19.3094 v -9.1316 z m -188.2513,-7.4891 c 3.8896,-10.8364 4.7689,-14.2535 3.7322,-14.5036 -2.8948,-0.6982 -4.0752,1.0044 -7.1256,10.2778 -3.6027,10.9522 -4.3699,12.2218 -5.2548,8.6958 -0.3475,-1.3844 -1.9847,-6.2561 -3.6384,-10.8262 -2.6865,-7.4244 -3.2681,-8.3091 -5.4629,-8.3091 -1.8439,0 -2.3076,0.3877 -1.8597,1.5549 0.3281,0.8552 2.685,7.4692 5.2374,14.6978 4.3013,12.1812 4.8107,13.1226 6.9621,12.866 2.0449,-0.2439 2.9272,-1.9649 7.4097,-14.4534 z"
       id="path42342" />
    <path
       style="fill:#7c7c7c;fill-opacity:0.84447217;stroke:#3b3b3b;stroke-width:0;stroke-linejoin:miter;stroke-dasharray:none;stroke-opacity:1;paint-order:stroke fill markers"
       d="m 1505.5979,1138.1088 c -0.2932,-19.8821 -9.5245,-39.0542 -24.5066,-50.8968 l -3.6557,-2.8897 15.1567,-0.5683 c 13.7456,-0.5154 15.3556,-0.4403 17.2935,0.8066 4.7193,3.0367 10.0636,8.0502 14.4052,13.5138 9.6397,12.1304 14.5994,26.5101 14.6149,42.3726 l 0.01,6.0403 h -16.5952 -16.5951 z"
       id="path43105" />
    <path
       style="fill:#1c1c1c;fill-opacity:0.844472;stroke:#070707;stroke-width:3.29438;stroke-linejoin:miter;stroke-dasharray:none;stroke-opacity:1;marker-end:url(#Arrow3);paint-order:stroke fill markers"
       d="m 1515.5233,1109.3156 171.1952,-49.3075"
       id="path44295" />
    <path
       style="fill:#8b8b8b;fill-opacity:0.847059;stroke:#070707;stroke-width:0.505512;stroke-linejoin:miter;stroke-dasharray:none;stroke-opacity:1;paint-order:stroke fill markers"
       d=""
       id="path45805" />
    <path
       style="fill:#8b8b8b;fill-opacity:0.847059;stroke:#070707;stroke-width:0.505512;stroke-linejoin:miter;stroke-dasharray:none;stroke-opacity:1;paint-order:stroke fill markers"
       d=""
       id="path45807" />
    <path
       style="fill:#8b8b8b;fill-opacity:0.847059;stroke:#070707;stroke-width:0.505512;stroke-linejoin:miter;stroke-dasharray:none;stroke-opacity:1;paint-order:stroke fill markers"
       d=""
       id="path45809" />
    <path
       style="fill:#8b8b8b;fill-opacity:0.847059;stroke:#070707;stroke-width:0.254044;stroke-linejoin:miter;stroke-dasharray:none;stroke-opacity:1;paint-order:stroke fill markers"
       d=""
       id="path45811" />
    <path
       style="fill:#000000;fill-opacity:0;stroke:none;stroke-width:0.367077;stroke-linejoin:miter;stroke-dasharray:none;stroke-opacity:1;paint-order:stroke fill markers"
       d="m 1294.6133,1295.2256 c -5.556,-2.2473 -11.8595,-6.1012 -17.1867,-10.5075 -1.5402,-1.274 -10.1391,-7.7912 -14.688,-11.1323 -4.15,-3.0481 -4.727,-3.4754 -8.6213,-6.3853 -2.1704,-1.6218 -4.7307,-3.5507 -5.6897,-4.2866 -1.6567,-1.2712 -2.214,-1.7002 -5.2309,-4.0264 -0.7066,-0.5448 -2.2558,-1.7631 -3.4428,-2.7072 -6.0686,-4.827 -9.2363,-6.9221 -16.2002,-10.7148 -3.4217,-1.8635 -7.0199,-3.674 -29.4534,-14.8203 -6.1073,-3.0345 -12.4669,-6.2266 -14.1325,-7.0937 -7.1301,-3.7117 -8.9187,-4.6589 -12.5149,-6.6271 -9.0388,-4.9471 -15.9521,-9.1659 -20.8891,-12.7475 -0.7571,-0.5493 -1.934,-1.4044 -2.6154,-1.9002 l -1.2389,-0.9015 v -83.2013 -83.2014 l 60.43,0.01 60.43,0.01 1.9272,1.8437 c 10.2745,9.83 21.8832,16.0622 33.771,18.1302 3.8001,0.661 6.4637,0.823 13.6736,0.8318 7.3462,0.01 10.5688,-0.2169 17.1608,-1.2023 11.314,-1.6912 23.7342,-6.5768 44.9263,-17.6722 l 3.722,-1.9487 h 60.1527 60.1526 l 5.6864,1.9075 c 15.5086,5.2022 24.2056,8.5468 31.7948,12.2273 l 3.3495,1.6245 v 24.8742 24.8742 l -1.2389,0.364 c -3.4495,1.0136 -7.127,2.0375 -7.3179,2.0375 -0.1183,0 -0.6087,-0.6317 -1.0899,-1.4037 -2.8484,-4.5701 -7.9369,-10.4102 -12.5614,-14.417 -1.1016,-0.9544 -8.1351,-6.6561 -8.4539,-6.8532 -0.077,-0.048 -1.7788,-0.01 -3.7813,0.094 -3.6001,0.1781 -5.7976,0.2738 -10.7989,0.4701 -7.8924,0.3097 -15.9293,0.8083 -19.4719,1.208 -1.6645,0.1878 -1.9012,0.1769 -2.3357,-0.1078 -0.4735,-0.3102 -0.4879,-0.3072 -0.6938,0.1447 -0.1157,0.2539 -0.3654,0.5021 -0.555,0.5517 -0.1896,0.05 -0.3447,0.2126 -0.3447,0.3624 0,0.5535 2.0904,2.3891 4.1255,3.6225 2.5056,1.5187 8.3354,6.971 11.7681,11.0062 4.262,5.0099 6.8583,8.7996 9.1161,13.3065 5.1784,10.3365 6.369,16.3623 6.3737,32.2569 v 5.6438 h 18.6292 18.6291 v 41.9994 41.9994 l -1.8813,1.8213 c -7.8385,7.5887 -12.8767,10.3405 -20.868,11.398 -3.2823,0.4343 -10.3687,0.4294 -13.2242,-0.01 -7.4769,-1.1485 -15.4024,-4.0261 -33.6793,-12.2284 -12.996,-5.8323 -20.8433,-8.3212 -29.2744,-9.2849 -3.1771,-0.3632 -8.3705,-0.272 -11.3793,0.1998 -3.7308,0.5849 -9.229,2.1973 -12.2688,3.5977 -3.5721,1.6458 -5.7222,3.0858 -10.7653,7.2101 -4.7619,3.8944 -5.7583,4.8485 -20.8316,19.9481 -7.9243,7.9381 -15.3225,15.291 -16.4406,16.3397 -3.5273,3.3088 -4.1627,3.8937 -6.0428,5.5631 -1.0095,0.8963 -2.1258,1.8918 -2.4808,2.2122 -1.0484,0.9465 -6.0395,4.9003 -7.4297,5.8855 -5.9055,4.1857 -12.9472,7.7501 -19.7213,9.9824 l -1.7101,0.5636 h -17.733 -17.7331 l -1.8095,-0.732 z m 29.1529,-146.8977 c 0.2411,-0.241 0.4899,-0.7572 0.5529,-1.1471 0.063,-0.3898 0.1485,-0.8783 0.1901,-1.0855 0.1347,-0.6711 1.3039,-1.6248 3.0997,-2.5283 3.1179,-1.5686 4.42,-3.3621 4.4202,-6.0883 0,-2.7643 -1.2084,-4.3422 -4.6686,-6.0948 -1.8934,-0.959 -2.1408,-1.1425 -2.5236,-1.8721 -0.37,-0.7052 -0.4241,-1.0699 -0.4219,-2.8449 0,-1.1197 0.053,-2.2226 0.1137,-2.4509 0.1589,-0.5932 0.7571,-0.6733 2.589,-0.3465 0.8844,0.1577 1.8359,0.2392 2.1147,0.1812 0.6474,-0.135 1.3719,-0.9935 1.5244,-1.8065 0.2806,-1.4959 -1.1318,-2.5466 -3.7845,-2.8155 -2.3018,-0.2333 -2.4057,-0.3162 -2.6509,-2.1164 -0.1681,-1.2337 -0.722,-1.7664 -1.8369,-1.7664 -0.9571,0 -1.8547,0.3912 -1.9953,0.8697 -0.052,0.1778 -0.1511,0.6392 -0.2196,1.0255 -0.2011,1.1332 -1.1254,1.8055 -3.8359,2.7902 -1.188,0.4316 -2.5327,1.7047 -3.169,3.0003 -0.4395,0.8951 -0.5069,1.2519 -0.5069,2.6842 0,1.425 0.071,1.8057 0.5178,2.7722 0.6616,1.4316 2.0625,2.809 3.6118,3.5513 2.8391,1.3603 3.06,1.5766 3.3015,3.2336 0.1968,1.3506 0.085,4.3526 -0.1804,4.8487 -0.2864,0.5353 -1.0425,0.4738 -3.5867,-0.2914 -2.7697,-0.8331 -3.3839,-0.8758 -3.6997,-0.2573 -0.28,0.5486 -0.3083,2.0397 -0.056,2.9482 0.2538,0.9136 1.117,1.3434 3.6603,1.8226 3.1109,0.586 3.7902,1.004 3.982,2.4499 0.1767,1.332 0.6722,1.7727 1.9933,1.7727 0.837,0 1.1069,-0.081 1.4644,-0.4384 z m 46.9735,-0.02 c 0.2505,-0.2703 0.4718,-0.7993 0.5387,-1.288 0.063,-0.456 0.2359,-1.0654 0.3852,-1.3542 0.3002,-0.5804 1.6329,-1.5234 3.2977,-2.3333 1.2475,-0.6068 2.5222,-1.8016 3.072,-2.8793 1.1907,-2.3338 0.4385,-5.8324 -1.6488,-7.6697 -0.4521,-0.398 -1.5868,-1.0981 -2.5217,-1.5559 -0.9403,-0.4605 -1.8296,-1.0307 -1.9906,-1.2762 -0.4324,-0.66 -0.7215,-2.9867 -0.5708,-4.5943 0.1694,-1.8075 0.3185,-1.8897 2.6945,-1.4847 1.0601,0.1807 1.9271,0.2366 2.2667,0.1461 1.2751,-0.3396 1.8345,-2.4178 0.9172,-3.4074 -0.6625,-0.7149 -1.5419,-1.0204 -3.4422,-1.1958 -1.8867,-0.174 -2.2398,-0.4109 -2.4358,-1.6338 -0.2086,-1.3016 -0.2782,-1.4939 -0.6745,-1.8631 -0.4383,-0.4083 -1.6123,-0.5036 -2.4202,-0.1965 -0.5352,0.2035 -1.0302,1.0544 -1.0302,1.7708 0,0.7758 -1.1617,1.7469 -2.808,2.3473 -3.4317,1.2516 -4.8521,3.1967 -4.6825,6.412 0.1474,2.7945 1.7253,5.0201 4.3301,6.1075 2.9037,1.2121 3.1604,1.6273 3.1604,5.1113 0,1.2533 -0.081,2.4905 -0.179,2.7494 -0.2502,0.658 -0.933,0.621 -3.7045,-0.2011 -3.1409,-0.9316 -3.4061,-0.9568 -3.6386,-0.3453 -0.2556,0.6722 -0.235,2.7289 0.033,3.3175 0.3129,0.6868 1.2321,1.0878 3.5428,1.5458 3.2836,0.6506 3.7645,0.9655 4.0383,2.6441 0.1813,1.1115 0.7849,1.5855 2.0189,1.5855 0.8592,0 1.0959,-0.075 1.4517,-0.4587 z m -24.4344,-1.8129 c 1.6238,-0.6948 2.5653,-2.6071 6.201,-12.595 3.993,-10.9691 5.2731,-15.5195 4.5301,-16.1031 -0.3807,-0.299 -1.3516,-0.4101 -1.9882,-0.2275 -1.7847,0.5119 -2.6964,2.3235 -5.8658,11.6563 -2.0461,6.025 -2.9648,8.3381 -3.5065,8.8283 -0.3629,0.3285 -0.3805,0.3279 -0.6357,-0.021 -0.1444,-0.1974 -0.349,-0.6919 -0.4547,-1.0988 -0.2776,-1.0685 -2.3492,-7.2796 -3.4341,-10.2961 -2.1307,-5.9244 -3.1846,-8.171 -4.1211,-8.7846 -1.0106,-0.6621 -3.4751,-0.4972 -3.7118,0.2484 -0.065,0.2035 0.5396,2.1762 1.4742,4.8138 0.8711,2.4579 2.0354,5.7491 2.5874,7.3137 3.9245,11.1238 5.317,14.6196 6.2556,15.7049 0.721,0.8338 1.6001,1.0184 2.6696,0.5609 z"
       id="path45894" />
    <path
       style="fill:#000000;fill-opacity:0;stroke:none;stroke-width:0.367077;stroke-linejoin:miter;stroke-dasharray:none;stroke-opacity:1;paint-order:stroke fill markers"
       d="m 1368.3635,1148.5916 c -0.5817,-0.2357 -0.8037,-0.6075 -1.0025,-1.6789 -0.1332,-0.718 -0.3203,-1.1022 -0.6787,-1.3938 -0.5072,-0.4126 -2.3259,-0.9564 -4.486,-1.3413 -1.6271,-0.2899 -2.2609,-0.6951 -2.4819,-1.5865 -0.1908,-0.7695 -0.1885,-1.9243 0.01,-2.6966 0.1649,-0.6569 0.5468,-0.6374 3.1867,0.1628 2.7642,0.8379 3.5599,0.9506 3.9508,0.5597 0.4102,-0.4102 0.5579,-1.606 0.4726,-3.8265 -0.1081,-2.8115 -0.2983,-3.1074 -2.7746,-4.3146 -2.3654,-1.1533 -3.405,-2.105 -4.2223,-3.8652 -0.4917,-1.0589 -0.5694,-1.4328 -0.5687,-2.7345 8e-4,-1.3554 0.065,-1.6333 0.6325,-2.7462 0.7777,-1.5245 1.8318,-2.3748 3.923,-3.1641 1.886,-0.7119 2.8053,-1.4473 2.9538,-2.3629 0.1786,-1.1023 0.4184,-1.5093 1.0442,-1.7724 0.6483,-0.2726 1.4782,-0.2299 2.1169,0.1088 0.4102,0.2176 0.7771,1.1399 0.7791,1.9586 0,1.1224 0.59,1.4827 2.7465,1.685 2.0237,0.1898 3.0412,0.6663 3.4349,1.6086 0.2243,0.5368 0.2388,0.8042 0.073,1.3559 -0.3801,1.2684 -1.4587,1.7064 -3.1337,1.2727 -0.3533,-0.091 -1.0303,-0.2193 -1.5044,-0.284 -0.7308,-0.1 -0.9221,-0.058 -1.2561,0.2763 -0.3716,0.3716 -0.3905,0.5373 -0.331,2.9005 0.082,3.2457 0.1697,3.4052 2.5261,4.58 2.0841,1.039 3.4017,2.2462 4.1471,3.7997 0.442,0.921 0.53,1.3415 0.5382,2.5695 0.018,2.7395 -1.1229,4.322 -4.3155,5.9853 -2.1258,1.1075 -2.8241,1.8621 -2.9988,3.2402 -0.1354,1.068 -0.367,1.4375 -1.0505,1.6757 -0.6717,0.2342 -1.1972,0.2428 -1.7265,0.028 z"
       id="path46034" />
    <path
       style="fill:#949494;fill-opacity:0.99843299;stroke:none;stroke-width:1.16412;stroke-linejoin:miter;stroke-dasharray:none;stroke-opacity:1;paint-order:stroke fill markers"
       d="m 1302.9814,1298.1983 c -9.2535,-1.9835 -17.3983,-6.3569 -27.979,-15.0237 -3.2013,-2.6222 -9.8793,-7.6291 -14.8399,-11.1264 -4.9606,-3.4973 -13.6366,-10.0603 -19.28,-14.5845 -11.95,-9.58 -15.3651,-11.6798 -28.7639,-17.6855 -11.4414,-5.1283 -46.5658,-23.1238 -55.5654,-28.4682 -23.4952,-13.9525 -37.9852,-31.805 -49.2372,-60.6627 -6.9603,-17.8508 -11.602,-38.4891 -13.5957,-60.4489 -0.3342,-3.6816 -0.6077,-12.849 -0.6077,-20.3721 0,-43.4477 6.0145,-55.3052 37.5389,-74.00758 17.9765,-10.66486 40.657,-21.04074 61.5892,-28.17594 l 10.9851,-3.74449 4.166,0.86152 c 5.1349,1.06186 11.3523,4.07006 15.2782,7.39214 5.5793,4.7211 8.6986,9.39861 15.6459,23.46167 3.6374,7.36308 8.2729,16.13758 10.3011,19.49898 12.8108,21.2313 28.2455,33.9452 47.4384,39.0761 5.8142,1.5543 22.1214,2.1688 29.4036,1.108 12.5769,-1.832 25.8521,-6.4514 40.6358,-14.14 28.6048,-14.8766 34.1474,-17.292 46.3903,-20.2161 11.6958,-2.7935 27.2916,-3.0326 38.8815,-0.5963 6.9127,1.4532 21.2936,5.6659 30.2521,8.862 3.5297,1.2593 13.5465,4.502 22.2595,7.206 23.6858,7.3507 31.4321,10.5423 41.2769,17.0067 9.5369,6.2623 17.1993,14.753 20.9685,23.2352 1.6827,3.7867 4.4642,14.1291 3.9415,14.6553 -0.1879,0.1892 -9.0571,2.856 -19.7092,5.9262 l -19.3675,5.5822 -1.977,-2.9486 c -2.6538,-3.9579 -10.3217,-11.9364 -14.3931,-14.976 -1.8147,-1.3548 -3.7275,-2.9334 -4.2507,-3.5078 -0.9066,-0.9956 -1.7776,-1.006 -18.6259,-0.2224 -9.7211,0.4521 -18.1886,0.7711 -18.8166,0.7087 -2.5255,-0.2506 -1.4309,1.7076 2.3405,4.1871 4.8213,3.1699 12.6172,10.8076 16.1074,15.7807 8.15,11.6124 11.6847,23.0337 11.7543,37.9794 l 0.043,9.1675 h 18.6953 l 18.6953,-10e-5 0.3608,-2.1827 c 0.5446,-3.2952 0.4237,-12.1453 -0.2288,-16.7342 -0.8856,-6.2295 -2.6653,-12.5564 -5.1586,-18.3396 -1.2433,-2.8841 -2.0824,-5.3539 -1.8645,-5.4886 1.005,-0.6211 37.0344,-10.6925 37.3003,-10.4266 0.1657,0.1657 0.3013,12.3936 0.3013,27.173 0,29.5337 -0.4351,35.5329 -3.7851,52.1914 -4.957,24.6496 -15.1918,45.4363 -29.3885,59.6874 -8.8698,8.9037 -15.6099,11.8794 -26.9487,11.8974 -9.922,0.016 -18.2952,-2.4687 -36.7907,-10.9165 -19.6651,-8.9819 -24.89,-10.5887 -35.874,-11.0319 -9.2489,-0.3733 -14.0998,0.5296 -21.1418,3.9351 -9.7922,4.7354 -16.3278,10.2318 -29.6723,24.9542 -21.9625,24.2305 -34.6019,34.4625 -50.2605,40.6874 -11.2477,4.4715 -24.4926,5.9357 -34.428,3.8061 z"
       id="path48500" />
    <path
       style="fill:#6e6e6e;fill-opacity:0.99843299;stroke:none;stroke-width:1.16412;stroke-linejoin:miter;stroke-dasharray:none;stroke-opacity:1;paint-order:stroke fill markers"
       d="m 1505.5998,1138.3727 c -0.3783,-8.535 -1.2225,-13.6141 -3.3622,-20.228 -1.229,-3.7993 -4.9757,-11.8124 -6.8168,-14.5794 -0.54,-0.8115 -1.5056,-2.316 -2.1459,-3.3431 -0.6403,-1.0272 -1.3606,-1.8693 -1.6007,-1.8713 -0.24,0 -0.4365,-0.2884 -0.4365,-0.6363 0,-0.348 -2.3074,-2.9018 -5.1276,-5.6751 -5.251,-5.1638 -7.4503,-7.0131 -8.5237,-7.1671 -2.3453,-0.3366 6.7364,-0.8432 17.64,-0.9841 l 13.0107,-0.1681 2.4139,1.5805 c 4.4782,2.9322 10.2616,7.8833 10.282,8.8022 0.01,0.2535 1.2896,1.836 2.8533,3.5167 1.5638,1.6807 2.7318,3.0558 2.5957,3.0558 -0.1361,0 0.1789,0.6509 0.7001,1.4464 1.1181,1.7064 1.2913,1.6099 -6.8869,3.8376 -4.2714,1.1634 -5.0916,1.5769 -5.0841,2.5626 0.021,2.7295 0.6377,2.8145 7.036,0.9686 8.4679,-2.4428 7.9468,-2.4542 9.4194,0.2068 0.7087,1.2805 1.4195,2.4592 1.5795,2.6192 0.1601,0.1601 0.3827,0.8149 0.4947,1.4552 0.1121,0.6403 0.4619,1.3244 0.7773,1.5202 0.3155,0.1959 0.5298,0.4578 0.4763,0.5821 -0.1397,0.3244 0.6798,3.6119 1.0694,4.2901 0.1807,0.3145 0.3779,0.9693 0.4382,1.4552 0.06,0.4858 0.544,2.883 1.0748,5.3271 0.5604,2.58 1.0142,7.5846 1.0821,11.9322 l 0.1168,7.4885 -16.3539,0.1544 -16.3539,0.1544 z"
       id="path50089" />
    <text
       xml:space="preserve"
       style="font-style:normal;font-weight:normal;font-size:40px;line-height:1.25;font-family:sans-serif;fill:#000000;fill-opacity:1;stroke:none"
       x="1295.4564"
       y="1119.7291"
       id="text50231"><tspan
         sodipodi:role="line"
         id="tspan50229"
         x="1295.4564"
         y="1119.7291">$V$</tspan></text>
  </g>
</svg>
